<?xml version="1.0" encoding="UTF-8"?>
<svg xmlns="http://www.w3.org/2000/svg" xmlns:xlink="http://www.w3.org/1999/xlink"
     width="400" height="400" viewBox="-100.0 -100.0 200 200">
<defs>
</defs>
<path d="M-90,-100 L-90,100" stroke="#e5e5e5" stroke-width="3" />
<path d="M-100,-90 L100,-90" stroke="#e5e5e5" stroke-width="3" />
<path d="M-80,-100 L-80,100" stroke="#e5e5e5" stroke-width="3" />
<path d="M-100,-80 L100,-80" stroke="#e5e5e5" stroke-width="3" />
<path d="M-70,-100 L-70,100" stroke="#e5e5e5" stroke-width="3" />
<path d="M-100,-70 L100,-70" stroke="#e5e5e5" stroke-width="3" />
<path d="M-60,-100 L-60,100" stroke="#e5e5e5" stroke-width="3" />
<path d="M-100,-60 L100,-60" stroke="#e5e5e5" stroke-width="3" />
<path d="M-50,-100 L-50,100" stroke="#e5e5e5" stroke-width="3" />
<path d="M-100,-50 L100,-50" stroke="#e5e5e5" stroke-width="3" />
<path d="M-40,-100 L-40,100" stroke="#e5e5e5" stroke-width="3" />
<path d="M-100,-40 L100,-40" stroke="#e5e5e5" stroke-width="3" />
<path d="M-30,-100 L-30,100" stroke="#e5e5e5" stroke-width="3" />
<path d="M-100,-30 L100,-30" stroke="#e5e5e5" stroke-width="3" />
<path d="M-20,-100 L-20,100" stroke="#e5e5e5" stroke-width="3" />
<path d="M-100,-20 L100,-20" stroke="#e5e5e5" stroke-width="3" />
<path d="M-10,-100 L-10,100" stroke="#e5e5e5" stroke-width="3" />
<path d="M-100,-10 L100,-10" stroke="#e5e5e5" stroke-width="3" />
<path d="M10,-100 L10,100" stroke="#e5e5e5" stroke-width="3" />
<path d="M-100,10 L100,10" stroke="#e5e5e5" stroke-width="3" />
<path d="M20,-100 L20,100" stroke="#e5e5e5" stroke-width="3" />
<path d="M-100,20 L100,20" stroke="#e5e5e5" stroke-width="3" />
<path d="M30,-100 L30,100" stroke="#e5e5e5" stroke-width="3" />
<path d="M-100,30 L100,30" stroke="#e5e5e5" stroke-width="3" />
<path d="M40,-100 L40,100" stroke="#e5e5e5" stroke-width="3" />
<path d="M-100,40 L100,40" stroke="#e5e5e5" stroke-width="3" />
<path d="M50,-100 L50,100" stroke="#e5e5e5" stroke-width="3" />
<path d="M-100,50 L100,50" stroke="#e5e5e5" stroke-width="3" />
<path d="M60,-100 L60,100" stroke="#e5e5e5" stroke-width="3" />
<path d="M-100,60 L100,60" stroke="#e5e5e5" stroke-width="3" />
<path d="M70,-100 L70,100" stroke="#e5e5e5" stroke-width="3" />
<path d="M-100,70 L100,70" stroke="#e5e5e5" stroke-width="3" />
<path d="M80,-100 L80,100" stroke="#e5e5e5" stroke-width="3" />
<path d="M-100,80 L100,80" stroke="#e5e5e5" stroke-width="3" />
<path d="M90,-100 L90,100" stroke="#e5e5e5" stroke-width="3" />
<path d="M-100,90 L100,90" stroke="#e5e5e5" stroke-width="3" />
<path d="M-100,0 L100,0" stroke="#afafaf" stroke-width="3" />
<path d="M0,-100 L0,100" stroke="#afafaf" stroke-width="3" />
<circle cx="30" cy="40" r="5" fill="#1cb0f6" stroke-width="2" stroke="white" />
<text x="40" y="50" font-size="10" fill="#1cb0f6">(3, 4)</text>
</svg>